<?xml version="1.0" encoding="iso-8859-1"?>
<!-- Generator: Adobe Illustrator 19.0.0, SVG Export Plug-In . SVG Version: 6.00 Build 0)  -->
<svg version="1.1" id="Layer_1" xmlns="http://www.w3.org/2000/svg" xmlns:xlink="http://www.w3.org/1999/xlink" x="0px" y="0px"
	 viewBox="0 0 512 512" style="enable-background:new 0 0 512 512;" xml:space="preserve">
<path style="fill:#79CAE8;" d="M483.265,412.735H28.735c-11.542,0-20.898-9.356-20.898-20.898V120.163
	c0-11.542,9.356-20.898,20.898-20.898h454.531c11.542,0,20.898,9.356,20.898,20.898v271.673
	C504.163,403.379,494.807,412.735,483.265,412.735z"/>
<circle style="fill:#CAF9F4;" cx="342.518" cy="252.855" r="120.163"/>
<g>
	<circle style="fill:#4B92B9;" cx="342.518" cy="252.855" r="26.122"/>
	<path style="fill:#4B92B9;" d="M226.826,148.502v-23.103l-138.185-0.007c-0.001,30.199-24.483,54.681-54.683,54.681v145.578
		c30.2,0,54.682,24.481,54.683,54.681l138.185-0.007v-23.092c-28.411-25.83-46.268-63.049-46.268-104.375
		C180.558,211.54,198.416,174.321,226.826,148.502z"/>
	<path style="fill:#4B92B9;" d="M188.76,191.173l86.094,48.777c0.802,0.455,1.563,0.994,2.201,1.659
		c6.433,6.722,1.093,18.175-8.192,17.567c-0.919-0.061-1.821-0.297-2.685-0.619l-92.706-34.599L188.76,191.173z"/>
</g>
<circle style="fill:#FFFFFF;" cx="181.112" cy="207.569" r="26.122"/>
<g>
	<circle style="fill:#4B92B9;" cx="44.408" cy="135.837" r="14.629"/>
	<circle style="fill:#4B92B9;" cx="44.408" cy="376.163" r="14.629"/>
	<circle style="fill:#4B92B9;" cx="467.592" cy="135.837" r="14.629"/>
	<circle style="fill:#4B92B9;" cx="467.592" cy="376.163" r="14.629"/>
</g>
<path d="M483.265,91.429H28.735C12.891,91.429,0,104.319,0,120.163v271.673c0,15.844,12.891,28.735,28.735,28.735h454.531
	c15.844,0,28.735-12.891,28.735-28.735V120.163C512,104.319,499.109,91.429,483.265,91.429z M496.327,391.837
	c0,7.202-5.859,13.061-13.061,13.061H28.735c-7.202,0-13.061-5.859-13.061-13.061V120.163c0-7.202,5.859-13.061,13.061-13.061
	h454.531c7.202,0,13.061,5.859,13.061,13.061V391.837z"/>
<path d="M342.518,124.855c-51.554,0-97.738,30.873-117.732,77.722l-11.8-6.685c-2.983-8.143-9.056-15.156-17.518-19.103
	c-8.221-3.835-17.444-4.237-25.967-1.134c-8.523,3.102-15.33,9.339-19.163,17.56c-7.912,16.97-0.543,37.215,16.426,45.128
	c4.566,2.13,9.44,3.201,14.333,3.201c3.899,0,7.809-0.681,11.582-2.048l21.949,8.192c-0.07,1.728-0.11,3.454-0.11,5.168
	c0,70.58,57.42,128,128,128s128-57.42,128-128S413.097,124.855,342.518,124.855z M214.319,214.662l56.711,32.132
	c0.264,0.148,0.367,0.239,0.367,0.239c0.972,1.016,0.642,2.188,0.358,2.796c-0.284,0.61-0.95,1.62-2.351,1.531
	c-0.001,0-0.151-0.016-0.486-0.14L207.9,228.448c1.552-1.999,2.899-4.181,3.994-6.53
	C212.998,219.549,213.794,217.115,214.319,214.662z M173.388,224.139c-9.138-4.261-13.105-15.163-8.845-24.3
	c2.064-4.427,5.729-7.785,10.319-9.456c2.041-0.743,4.157-1.112,6.265-1.112c2.634,0,5.257,0.577,7.716,1.722
	c9.138,4.262,13.106,15.164,8.846,24.301c-2.065,4.427-5.729,7.784-10.319,9.455C182.781,226.419,177.814,226.202,173.388,224.139z
	 M342.518,365.181c-61.722,0-111.97-50.042-112.318-111.683l33.239,12.405c1.673,0.624,3.271,0.981,4.913,1.094
	c0.399,0.025,0.796,0.039,1.192,0.039c7.018,0,13.375-4.059,16.416-10.588c3.212-6.894,1.938-14.845-3.236-20.247
	c-1.124-1.179-2.488-2.219-4.011-3.07l-40.185-22.768c17.16-42.023,58.152-69.836,103.989-69.836
	c61.936,0,112.327,50.39,112.327,112.327S404.454,365.181,342.518,365.181z"/>
<path d="M342.521,218.899c-18.726,0-33.959,15.234-33.959,33.959s15.234,33.959,33.959,33.959c18.726,0,33.959-15.234,33.959-33.959
	S361.246,218.899,342.521,218.899z M342.521,271.144c-10.082,0-18.286-8.203-18.286-18.286c0-10.082,8.204-18.286,18.286-18.286
	c10.082,0,18.286,8.203,18.286,18.286C360.806,262.94,352.603,271.144,342.521,271.144z"/>
<path d="M188.405,254.485l-15.671,0.19c0.483,39.935,17.297,78.353,46.258,105.966v11.846l-123.003,0.008
	c-3.544-28.22-25.97-50.645-54.19-54.188V187.416c28.221-3.544,50.647-25.97,54.19-54.189l123.003,0.008v11.855
	c-6.24,5.943-11.983,12.445-17.104,19.366l12.6,9.323c5.206-7.036,11.131-13.59,17.611-19.477l2.566-2.332v-34.407l-153.862-0.011
	v7.838c0,25.83-21.013,46.843-46.843,46.843h-7.837v161.259h7.837c25.83,0,46.843,21.013,46.843,46.842v7.838l153.861-0.013v-34.394
	l-2.564-2.332C204.776,326.587,188.85,291.25,188.405,254.485z"/>
<path d="M44.408,158.302c12.387,0,22.465-10.078,22.465-22.465s-10.078-22.465-22.465-22.465s-22.465,10.078-22.465,22.465
	S32.021,158.302,44.408,158.302z M44.408,129.045c3.745,0,6.792,3.047,6.792,6.792s-3.047,6.792-6.792,6.792
	s-6.792-3.047-6.792-6.792S40.663,129.045,44.408,129.045z"/>
<path d="M44.408,353.698c-12.387,0-22.465,10.078-22.465,22.465c0,12.387,10.078,22.465,22.465,22.465s22.465-10.078,22.465-22.465
	C66.873,363.776,56.795,353.698,44.408,353.698z M44.408,382.955c-3.745,0-6.792-3.047-6.792-6.792s3.047-6.792,6.792-6.792
	s6.792,3.047,6.792,6.792S48.153,382.955,44.408,382.955z"/>
<path d="M467.592,113.371c-12.387,0-22.465,10.078-22.465,22.465s10.078,22.465,22.465,22.465c12.387,0,22.465-10.078,22.465-22.465
	S479.979,113.371,467.592,113.371z M467.592,142.629c-3.745,0-6.792-3.047-6.792-6.792s3.047-6.792,6.792-6.792
	c3.745,0,6.792,3.047,6.792,6.792S471.337,142.629,467.592,142.629z"/>
<path d="M467.592,353.698c-12.387,0-22.465,10.078-22.465,22.465c0,12.387,10.078,22.465,22.465,22.465
	c12.387,0,22.465-10.078,22.465-22.465C490.057,363.776,479.979,353.698,467.592,353.698z M467.592,382.955
	c-3.745,0-6.792-3.047-6.792-6.792s3.047-6.792,6.792-6.792c3.745,0,6.792,3.047,6.792,6.792S471.337,382.955,467.592,382.955z"/>
<g>
</g>
<g>
</g>
<g>
</g>
<g>
</g>
<g>
</g>
<g>
</g>
<g>
</g>
<g>
</g>
<g>
</g>
<g>
</g>
<g>
</g>
<g>
</g>
<g>
</g>
<g>
</g>
<g>
</g>
</svg>
